<svg xmlns="http://www.w3.org/2000/svg" viewBox="0 0 512 512"><path d="M112 196Q108 78 256 66Q406 78 400 205L406 354Q382 408 335 382L318 226H194L174 383Q128 410 106 354Z" fill="#6A4435" stroke="#2A1717" stroke-width="18" stroke-linejoin="round"/>
<path d="M148 336Q176 302 256 300Q336 302 364 336L390 474H122Z" fill="#F06659" stroke="#2A1717" stroke-width="18" stroke-linejoin="round"/>
<circle cx="150" cy="218" r="36" fill="#FFE3C6" stroke="#2A1717" stroke-width="16"/><circle cx="362" cy="218" r="36" fill="#FFE3C6" stroke="#2A1717" stroke-width="16"/>
<ellipse cx="256" cy="220" rx="118" ry="126" fill="#FFE3C6" stroke="#2A1717" stroke-width="18"/><path d="M150 178Q150 92 256 86Q362 92 365 176Q328 146 298 132Q300 174 276 187Q258 154 250 130Q236 168 208 184Q197 148 198 126Q174 152 150 178Z" fill="#6A4435" stroke="#2A1717" stroke-width="18" stroke-linejoin="round"/><circle cx="208" cy="224" r="12" fill="#2A1717"/><circle cx="304" cy="224" r="12" fill="#2A1717"/><g fill="none" stroke="#2A1717" stroke-width="13"><rect x="160" y="190" width="96" height="72" rx="31"/><rect x="258" y="190" width="96" height="72" rx="31"/><path d="M256 214h2"/></g>
<circle cx="184" cy="270" r="16" fill="#FF8A7B"/><circle cx="328" cy="270" r="16" fill="#FF8A7B"/><path d="M232 270q24 26 48 0" fill="none" stroke="#2A1717" stroke-width="12" stroke-linecap="round"/>
<path d="M224 318Q256 338 288 318L300 352Q256 374 212 352Z" fill="#FFF9ED" stroke="#2A1717" stroke-width="14"/><path d="M360 342Q416 286 430 322Q438 342 414 356Q442 340 449 364Q452 385 422 392Q444 392 441 414Q434 438 388 422L352 394Z" fill="#FFE3C6" stroke="#2A1717" stroke-width="15" stroke-linejoin="round"/></svg>